<svg width="512" height="512" viewBox="0 0 512 512" fill="none" xmlns="http://www.w3.org/2000/svg">
<g opacity="0.08">
<g clip-path="url(#clip0_4_831)">
<path d="M60.6289 168.044C61.3244 167.914 62.2213 166.566 61.8574 165.911C61.6021 165.452 59.8218 164.407 59.8356 164.383C63.8556 157.294 59.2114 155.775 53.8348 152.531C51.3166 151.011 48.9501 148.938 46.7474 147.039" stroke="black" stroke-opacity="0.9" stroke-width="2" stroke-linecap="round" stroke-linejoin="round"/>
<path d="M48.0874 148.978C47.9905 150.064 46.0949 152.14 46.5843 153.304C46.6684 153.504 50.3195 155.452 53.9139 156.505C54.2128 156.593 57.7069 157.572 57.8682 157.955C58.0894 158.482 57.7684 159.874 57.7204 160.44C56.4463 175.427 33.8152 167.26 46.0256 153.98" stroke="black" stroke-opacity="0.9" stroke-width="2" stroke-linecap="round" stroke-linejoin="round"/>
<path opacity="0.503384" d="M45.3819 158.873C46.718 158.914 55.629 162.279 55.293 163.094C54.9342 163.964 45.7 159.516 44.6334 159.175" stroke="black" stroke-opacity="0.9" stroke-width="2" stroke-linecap="round" stroke-linejoin="round"/>
</g>
<path opacity="0.503384" d="M60.2251 273.925L59.2811 270.838C57.8725 271.555 56.5109 271.417 55.1061 271.505" stroke="black" stroke-opacity="0.9" stroke-width="2" stroke-linecap="round" stroke-linejoin="round"/>
<path opacity="0.503384" d="M60.4721 275.471C59.0568 275.95 57.3382 276.64 55.9064 276.514" stroke="black" stroke-opacity="0.9" stroke-width="2" stroke-linecap="round" stroke-linejoin="round"/>
<path d="M62.4868 279.618C60.6713 280.061 57.2231 281.807 55.4669 281.004C55.3646 280.957 50.9404 268.426 55.172 266.628" stroke="black" stroke-opacity="0.9" stroke-width="2" stroke-linecap="round" stroke-linejoin="round"/>
<path d="M59.1997 266.097C61.7789 267.24 62.7724 275.236 63.3662 278.952" stroke="black" stroke-opacity="0.9" stroke-width="2" stroke-linecap="round" stroke-linejoin="round"/>
<path d="M54.8316 265.556C54.5624 263.15 54.0902 260.855 54.0377 258.472" stroke="black" stroke-opacity="0.9" stroke-width="2" stroke-linecap="round" stroke-linejoin="round"/>
<path d="M54.6669 258.178C55.2081 258.255 56.512 257.405 57.0128 257.628C57.4885 257.839 57.9346 263.848 58.6327 266.075" stroke="black" stroke-opacity="0.9" stroke-width="2" stroke-linecap="round" stroke-linejoin="round"/>
<path d="M173.195 105.837C171.14 105.613 169.003 105.468 167.009 104.913C164.63 104.251 159.035 103.699 157.375 101.646C156.245 100.248 158.236 98.0207 158.941 96.9773C161.867 92.6405 168.23 95.0997 171.409 97.5237C173.148 98.8501 176.645 104.156 174.027 105.909" stroke="black" stroke-opacity="0.9" stroke-width="2" stroke-linecap="round" stroke-linejoin="round"/>
<path d="M157.302 101.716C150.652 102.367 170.409 107.907 170.72 107.994C171.137 108.11 173.436 109.184 173.744 108.943C174.679 108.209 174.589 106.152 173.318 106.283" stroke="black" stroke-opacity="0.9" stroke-width="2" stroke-linecap="round" stroke-linejoin="round"/>
<path opacity="0.503384" d="M156.197 103.372C155.468 105.835 157.015 105.346 158.424 104.533C158.683 104.384 157.481 106.346 158.639 106.814C159.661 107.227 160.24 106.176 160.546 106.261C160.76 106.321 160.366 107.198 160.801 107.253C161.947 107.399 162.544 106.01 163.805 106.194C165.085 106.38 167.107 108.746 168.103 108.69C168.504 108.668 168.703 107.804 169.017 107.699C169.169 107.647 169.178 109.086 169.639 109.28C170.933 109.825 173.068 110.879 172.622 108.486" stroke="black" stroke-opacity="0.9" stroke-width="2" stroke-linecap="round" stroke-linejoin="round"/>
<path d="M155.364 104.739C154.84 105.327 154.318 106.128 154.998 106.817C155.949 107.78 170.714 112.299 172.326 111.853C173.105 111.638 173.199 110.127 173.245 109.504" stroke="black" stroke-opacity="0.9" stroke-width="2" stroke-linecap="round" stroke-linejoin="round"/>
<path d="M408.899 373.566C407.039 374.467 405.152 375.479 403.167 376.068C400.8 376.77 395.766 379.274 393.269 378.416C391.569 377.832 392.074 374.886 392.116 373.628C392.293 368.399 398.99 367.104 402.971 367.47C405.15 367.67 410.93 370.31 409.643 373.185" stroke="black" stroke-opacity="0.9" stroke-width="2" stroke-linecap="round" stroke-linejoin="round"/>
<path d="M393.245 378.514C387.955 382.597 407.638 376.799 407.948 376.707C408.363 376.584 410.881 376.274 411.014 375.906C411.417 374.787 410.248 373.092 409.24 373.878" stroke="black" stroke-opacity="0.9" stroke-width="2" stroke-linecap="round" stroke-linejoin="round"/>
<path opacity="0.503384" d="M393.188 380.504C393.877 382.978 394.929 381.742 395.691 380.305C395.831 380.041 395.855 382.342 397.085 382.123C398.17 381.931 398.103 380.733 398.407 380.643C398.62 380.58 398.752 381.532 399.15 381.348C400.199 380.863 399.966 379.369 401.132 378.855C402.316 378.333 405.286 379.264 406.1 378.687C406.428 378.455 406.138 377.618 406.348 377.362C406.449 377.238 407.221 378.452 407.715 378.372C409.101 378.146 411.47 377.905 409.821 376.114" stroke="black" stroke-opacity="0.9" stroke-width="2" stroke-linecap="round" stroke-linejoin="round"/>
<path d="M393.207 382.104C393.076 382.881 393.058 383.837 394.001 384.059C395.318 384.37 410.229 380.359 411.358 379.125C411.903 378.529 411.181 377.199 410.889 376.646" stroke="black" stroke-opacity="0.9" stroke-width="2" stroke-linecap="round" stroke-linejoin="round"/>
<path d="M141.414 220.104C141.975 218.671 142.682 217.257 143.403 215.865C145.343 212.12 145.304 208.536 149.55 210.735C149.943 210.938 152.005 211.651 152.128 212.036C152.254 212.433 150.061 215.048 149.81 215.454C146.484 220.823 147.657 223.989 141.64 220.46" stroke="black" stroke-opacity="0.9" stroke-width="2" stroke-linecap="round" stroke-linejoin="round"/>
<path d="M137.64 214.296C135.668 217.617 138.973 218.445 141.383 219.868" stroke="black" stroke-opacity="0.9" stroke-width="2" stroke-linecap="round" stroke-linejoin="round"/>
<path d="M146.434 221.97C150.309 224.087 150.794 223.877 153.374 219.939" stroke="black" stroke-opacity="0.9" stroke-width="2" stroke-linecap="round" stroke-linejoin="round"/>
<path d="M143.746 213.854C131.346 213.134 139.127 205.795 147.246 209.999" stroke="black" stroke-opacity="0.9" stroke-width="2" stroke-linecap="round" stroke-linejoin="round"/>
<path d="M151.866 213.395C153.743 214.569 155.202 217.183 156.452 219.255C157.146 220.405 158.392 221.379 158.139 221.869C157.428 223.241 156.974 221.423 156.363 221.326C155.576 221.201 154.907 224.502 154.302 224.049C152.968 223.051 155.012 221.04 154.606 220.484C153.537 219.02 151.402 217.817 149.906 216.718" stroke="black" stroke-opacity="0.9" stroke-width="2" stroke-linecap="round" stroke-linejoin="round"/>
<path opacity="0.503384" d="M140.185 209.6C139.929 210.204 140.213 210.595 140.365 210.946" stroke="black" stroke-opacity="0.9" stroke-width="2" stroke-linecap="round" stroke-linejoin="round"/>
<path opacity="0.503384" d="M142.994 209.176C142.937 209.444 142.93 209.733 142.899 210.004" stroke="black" stroke-opacity="0.9" stroke-width="2" stroke-linecap="round" stroke-linejoin="round"/>
<path opacity="0.503384" d="M152.228 214.208C152.024 214.533 151.744 214.796 151.486 215.077" stroke="black" stroke-opacity="0.9" stroke-width="2" stroke-linecap="round" stroke-linejoin="round"/>
<path opacity="0.503384" d="M153.737 216.619C153.536 216.69 153.401 216.877 153.251 216.993" stroke="black" stroke-opacity="0.9" stroke-width="2" stroke-linecap="round" stroke-linejoin="round"/>
<path opacity="0.503384" d="M151.249 211.947C149.581 211.738 147.885 211.763 146.229 211.478" stroke="black" stroke-opacity="0.9" stroke-width="2" stroke-linecap="round" stroke-linejoin="round"/>
<path opacity="0.503384" d="M151.333 212.993C149.597 212.833 147.85 212.828 146.113 212.67" stroke="black" stroke-opacity="0.9" stroke-width="2" stroke-linecap="round" stroke-linejoin="round"/>
<path opacity="0.503384" d="M150.47 214.175C148.917 214.369 147.388 214.138 145.843 214.159" stroke="black" stroke-opacity="0.9" stroke-width="2" stroke-linecap="round" stroke-linejoin="round"/>
<path opacity="0.503384" d="M149.355 215.603C148.518 215.824 145.84 215.381 145.726 215.352" stroke="black" stroke-opacity="0.9" stroke-width="2" stroke-linecap="round" stroke-linejoin="round"/>
<path opacity="0.503384" d="M148.584 217.333C147.51 217.274 146.431 217.153 145.354 217.039" stroke="black" stroke-opacity="0.9" stroke-width="2" stroke-linecap="round" stroke-linejoin="round"/>
<path opacity="0.503384" d="M147.418 218.859C146.637 219.018 145.851 219.028 145.077 219.025" stroke="black" stroke-opacity="0.9" stroke-width="2" stroke-linecap="round" stroke-linejoin="round"/>
<path opacity="0.503384" d="M146.15 220.583C145.553 220.534 144.951 220.626 144.357 220.657" stroke="black" stroke-opacity="0.9" stroke-width="2" stroke-linecap="round" stroke-linejoin="round"/>
<g clip-path="url(#clip1_4_831)">
<path opacity="0.503384" d="M42.299 40.6616C42.8606 42.0125 43.4721 43.0527 44.9329 42.3994C45.5807 42.1093 46.4001 40.9738 46.5019 40.2671C46.5141 40.1804 46.4802 38.3482 46.5592 38.384C47.2062 38.6781 47.3551 40.3857 48.4397 40.0316C50.2378 39.4444 49.7127 37.6631 50.7143 36.5993C50.848 36.4578 51.9996 36.9647 52.384 36.818C53.4822 36.3995 53.7391 34.8683 54.6768 34.5106C55.2111 34.307 55.7999 34.7337 56.3814 34.5653C57.0648 34.3676 56.8163 33.3934 57.5481 33.1145C58.2618 32.8428 59.2692 32.9928 59.7893 32.2604C60.2292 31.6415 58.7923 29.2984 58.2581 28.971C56.6655 27.9949 51.5427 31.5714 50.473 32.4912C47.8049 34.786 44.3169 36.9665 41.4049 38.8145" stroke="black" stroke-opacity="0.9" stroke-width="2" stroke-linecap="round" stroke-linejoin="round"/>
<path d="M44.5777 43.1907C44.7488 43.9413 47.368 48.6918 48.0897 48.8569C48.4761 48.9449 63.1778 40.0121 63.1885 39.4332C63.2047 38.5362 60.1103 34.8268 59.512 33.884" stroke="black" stroke-opacity="0.9" stroke-width="2" stroke-linecap="round" stroke-linejoin="round"/>
<path d="M44.1378 36.7258C43.8166 36.1119 43.2286 34.7669 43.034 34.3955" stroke="black" stroke-opacity="0.9" stroke-width="2" stroke-linecap="round" stroke-linejoin="round"/>
<path d="M47.1911 34.3929C46.9876 33.9819 46.8124 33.5768 46.6668 33.1444" stroke="black" stroke-opacity="0.9" stroke-width="2" stroke-linecap="round" stroke-linejoin="round"/>
<path d="M50.3439 32.1283C50.0835 31.6096 49.7938 31.177 49.4623 30.7111" stroke="black" stroke-opacity="0.9" stroke-width="2" stroke-linecap="round" stroke-linejoin="round"/>
<path d="M53.291 30.258C53.1457 29.831 52.927 29.434 52.7283 29.0338" stroke="black" stroke-opacity="0.9" stroke-width="2" stroke-linecap="round" stroke-linejoin="round"/>
<path opacity="0.503384" d="M41.9437 31.2116C41.2056 37.0581 44.7353 33.6902 43.5163 32.2519C43.0406 31.6907 42.3033 31.5585 41.8128 31.0854" stroke="black" stroke-opacity="0.9" stroke-width="2" stroke-linecap="round" stroke-linejoin="round"/>
<path opacity="0.503384" d="M44.7526 28.8244C44.7397 34.5893 49.0764 32.7388 45.0501 29.2053" stroke="black" stroke-opacity="0.9" stroke-width="2" stroke-linecap="round" stroke-linejoin="round"/>
<path opacity="0.503384" d="M47.8487 27.6501C46.501 31.3406 51.6362 32.0739 47.965 27.8333" stroke="black" stroke-opacity="0.9" stroke-width="2" stroke-linecap="round" stroke-linejoin="round"/>
<path opacity="0.503384" d="M50.9309 25.9577C51.6233 32.5379 53.748 26.5715 52.1973 26.6187C51.4698 26.6407 51.4413 26.7447 50.8649 26.1041" stroke="black" stroke-opacity="0.9" stroke-width="2" stroke-linecap="round" stroke-linejoin="round"/>
<path d="M48.9451 42.3865C48.9339 42.3403 48.9222 42.2939 48.9107 42.2478" stroke="black" stroke-opacity="0.9" stroke-width="2" stroke-linecap="round" stroke-linejoin="round"/>
<path d="M52.9508 39.83C52.848 39.6862 52.854 39.54 52.8056 39.395" stroke="black" stroke-opacity="0.9" stroke-width="2" stroke-linecap="round" stroke-linejoin="round"/>
<path d="M56.7277 37.3013C56.7198 37.1784 56.625 37.1021 56.5742 37.0033" stroke="black" stroke-opacity="0.9" stroke-width="2" stroke-linecap="round" stroke-linejoin="round"/>
</g>
<path d="M66.9143 433.962C66.405 432.51 66.0174 430.977 65.655 429.452C64.6798 425.349 62.3114 422.659 66.9635 421.553C67.3935 421.451 69.4209 420.644 69.765 420.856C70.1198 421.075 70.1657 424.487 70.2403 424.959C71.2251 431.198 74.1804 432.831 67.3182 434.084" stroke="black" stroke-opacity="0.9" stroke-width="2" stroke-linecap="round" stroke-linejoin="round"/>
<path d="M60.2646 432.026C60.9382 435.828 63.9829 434.298 66.7372 433.804" stroke="black" stroke-opacity="0.9" stroke-width="2" stroke-linecap="round" stroke-linejoin="round"/>
<path d="M71.9357 432.099C76.2537 431.173 76.4838 430.698 75.8685 426.03" stroke="black" stroke-opacity="0.9" stroke-width="2" stroke-linecap="round" stroke-linejoin="round"/>
<path d="M64.6018 427.705C54.7382 435.253 55.8417 424.614 64.7372 422.5" stroke="black" stroke-opacity="0.9" stroke-width="2" stroke-linecap="round" stroke-linejoin="round"/>
<path d="M70.4541 422.056C72.642 421.721 75.4539 422.75 77.7535 423.504C79.0298 423.922 80.61 423.846 80.7375 424.383C81.0948 425.886 79.5639 424.804 79.0377 425.13C78.3594 425.549 80.0077 428.487 79.2536 428.539C77.5915 428.653 77.8278 425.795 77.1566 425.639C75.3917 425.228 72.9889 425.71 71.1378 425.854" stroke="black" stroke-opacity="0.9" stroke-width="2" stroke-linecap="round" stroke-linejoin="round"/>
<path opacity="0.503384" d="M59.1277 426.807C59.3278 427.431 59.7984 427.541 60.1426 427.709" stroke="black" stroke-opacity="0.9" stroke-width="2" stroke-linecap="round" stroke-linejoin="round"/>
<path opacity="0.503384" d="M60.979 424.651C61.1103 424.892 61.2942 425.115 61.4475 425.34" stroke="black" stroke-opacity="0.9" stroke-width="2" stroke-linecap="round" stroke-linejoin="round"/>
<path opacity="0.503384" d="M71.2593 422.437C71.3169 422.816 71.276 423.198 71.2646 423.579" stroke="black" stroke-opacity="0.9" stroke-width="2" stroke-linecap="round" stroke-linejoin="round"/>
<path opacity="0.503384" d="M73.9757 423.278C73.87 423.463 73.8903 423.693 73.8519 423.879" stroke="black" stroke-opacity="0.9" stroke-width="2" stroke-linecap="round" stroke-linejoin="round"/>
<path opacity="0.503384" d="M69.0412 421.363C67.6414 422.293 66.3726 423.419 64.9322 424.283" stroke="black" stroke-opacity="0.9" stroke-width="2" stroke-linecap="round" stroke-linejoin="round"/>
<path opacity="0.503384" d="M69.7884 422.1C68.3688 423.112 67.041 424.249 65.6224 425.263" stroke="black" stroke-opacity="0.9" stroke-width="2" stroke-linecap="round" stroke-linejoin="round"/>
<path opacity="0.503384" d="M69.9061 423.559C68.8558 424.72 67.5468 425.543 66.3898 426.567" stroke="black" stroke-opacity="0.9" stroke-width="2" stroke-linecap="round" stroke-linejoin="round"/>
<path opacity="0.503384" d="M69.9931 425.368C69.503 426.082 67.185 427.495 67.08 427.547" stroke="black" stroke-opacity="0.9" stroke-width="2" stroke-linecap="round" stroke-linejoin="round"/>
<path opacity="0.503384" d="M70.5386 427.183C69.6863 427.839 68.7892 428.451 67.8989 429.068" stroke="black" stroke-opacity="0.9" stroke-width="2" stroke-linecap="round" stroke-linejoin="round"/>
<path opacity="0.503384" d="M70.6512 429.1C70.1624 429.73 69.5742 430.251 68.9857 430.754" stroke="black" stroke-opacity="0.9" stroke-width="2" stroke-linecap="round" stroke-linejoin="round"/>
<path opacity="0.503384" d="M70.8152 431.234C70.3312 431.586 69.9347 432.049 69.5055 432.46" stroke="black" stroke-opacity="0.9" stroke-width="2" stroke-linecap="round" stroke-linejoin="round"/>
<path d="M261.867 290.2C262.66 292.733 258.475 292.341 257.59 294.298C256.397 296.94 261.596 296.854 262.977 296.702" stroke="black" stroke-opacity="0.9" stroke-width="2" stroke-linecap="round" stroke-linejoin="round"/>
<path d="M257.157 295.207C256.616 295.364 256.028 295.618 255.62 296.023C254.861 296.774 254.521 297.878 254.521 298.908C254.521 303.969 263.486 303.519 266.767 302.337C268.379 301.755 270.352 300.118 268.689 298.744" stroke="black" stroke-opacity="0.9" stroke-width="2" stroke-linecap="round" stroke-linejoin="round"/>
<path d="M261.976 290.311C262.323 292.578 266.835 292.145 267.272 294.317C267.428 295.095 266.5 295.232 266.5 295.634C266.5 296.019 267.357 295.339 267.658 295.58C268.515 296.262 269.053 297.373 268.596 298.433" stroke="black" stroke-opacity="0.9" stroke-width="2" stroke-linecap="round" stroke-linejoin="round"/>
<path d="M254.072 300.992C252.943 303.527 255.347 302.498 255.396 302.53C255.959 302.904 255.791 304.524 257.272 304.123C257.512 304.057 258.282 303.051 258.54 303.244C259.107 303.667 258.991 304.626 260.968 304.232C261.257 304.175 262.103 302.944 262.237 303.024C262.812 303.368 262.461 304.652 263.561 304.287C264.168 304.086 264.649 303.596 264.995 303.079C265.078 302.956 265.1 302.603 265.216 302.695C265.669 303.055 265.437 303.848 266.264 303.848C267.004 303.848 267.886 302.948 268.361 302.475C268.521 302.315 268.621 303.822 269.298 303.244C270.256 302.427 270.247 301.211 270.292 301.322C270.81 302.612 269.757 310.204 269.298 310.66C268.139 311.815 260.924 311.811 259.423 311.811C259.059 311.811 255.821 312.109 255.561 311.591C254.967 310.408 253.626 302.923 253.52 301.651" stroke="black" stroke-opacity="0.9" stroke-width="2" stroke-linecap="round" stroke-linejoin="round"/>
<path d="M257.43 305.999C257.337 307.026 257.673 308.818 257.748 309.448" stroke="black" stroke-opacity="0.9" stroke-width="2" stroke-linecap="round" stroke-linejoin="round"/>
<path d="M260.202 305.888C260.194 307.107 260.174 308.31 260.307 309.448" stroke="black" stroke-opacity="0.9" stroke-width="2" stroke-linecap="round" stroke-linejoin="round"/>
<path d="M263.157 306.222C263.022 307.295 262.908 308.367 262.908 309.448" stroke="black" stroke-opacity="0.9" stroke-width="2" stroke-linecap="round" stroke-linejoin="round"/>
<path d="M265.759 305.999C265.599 306.919 265.521 307.855 265.425 308.781" stroke="black" stroke-opacity="0.9" stroke-width="2" stroke-linecap="round" stroke-linejoin="round"/>
<path d="M267.984 305.554C267.866 306.368 267.765 307.188 267.65 308.002" stroke="black" stroke-opacity="0.9" stroke-width="2" stroke-linecap="round" stroke-linejoin="round"/>
<g clip-path="url(#clip2_4_831)">
<path d="M378.534 138.628C376.005 138.575 373.504 136.681 373.652 136.174C373.984 135.027 374.59 132.434 376.84 128.861C377.891 127.193 379.623 126.329 380.92 125.108C381.65 124.421 382.413 122.002 383.166 121.425C383.614 121.083 385.399 122.036 385.155 122.604C382.865 127.923 384.862 125.115 383.239 131.345C382.676 133.507 380.566 136.782 379.342 138.403" stroke="black" stroke-opacity="0.9" stroke-width="2" stroke-linecap="round" stroke-linejoin="round"/>
<path opacity="0.503384" d="M382.312 131.226C381.899 131.212 379.932 130.514 379.358 130.674C379.241 130.707 374.244 135.366 379.693 135.547" stroke="black" stroke-opacity="0.9" stroke-width="2" stroke-linecap="round" stroke-linejoin="round"/>
<path opacity="0.503384" d="M383.073 125.24C382.552 125.179 382.115 124.85 381.733 124.573" stroke="black" stroke-opacity="0.9" stroke-width="2" stroke-linecap="round" stroke-linejoin="round"/>
<path d="M387.578 117.521C387.115 117.303 386.597 117.122 386.521 116.874C386.42 116.542 386.866 115.843 387.192 115.087" stroke="black" stroke-opacity="0.9" stroke-width="2" stroke-linecap="round" stroke-linejoin="round"/>
<path d="M387.031 114.921C386.736 112.929 390.278 114.336 388.615 115.486C388.534 116.442 388.385 116.95 388.171 117.009" stroke="black" stroke-opacity="0.9" stroke-width="2" stroke-linecap="round" stroke-linejoin="round"/>
<path opacity="0.503384" d="M384.834 118.283C384.885 118.898 384.657 119.419 384.501 119.993" stroke="black" stroke-opacity="0.9" stroke-width="2" stroke-linecap="round" stroke-linejoin="round"/>
<path opacity="0.503384" d="M386.097 119.087C386.028 119.316 385.91 119.525 385.817 119.742" stroke="black" stroke-opacity="0.9" stroke-width="2" stroke-linecap="round" stroke-linejoin="round"/>
<path opacity="0.503384" d="M387.545 119.724C387.257 120.077 386.858 120.298 386.514 120.588" stroke="black" stroke-opacity="0.9" stroke-width="2" stroke-linecap="round" stroke-linejoin="round"/>
</g>
<path d="M232.736 31.726C232.208 30.281 231.8 28.7534 231.418 27.2333C230.389 23.1427 227.986 20.4843 232.623 19.318C233.052 19.2102 235.068 18.377 235.415 18.5845C235.773 18.7986 235.863 22.2096 235.944 22.6804C237.01 28.9057 239.987 30.5 233.142 31.8434" stroke="black" stroke-opacity="0.9" stroke-width="2" stroke-linecap="round" stroke-linejoin="round"/>
<path d="M226.062 29.877C226.785 33.6704 229.809 32.1009 232.557 31.5705" stroke="black" stroke-opacity="0.9" stroke-width="2" stroke-linecap="round" stroke-linejoin="round"/>
<path d="M237.733 29.7976C242.038 28.8159 242.262 28.3373 241.586 23.6781" stroke="black" stroke-opacity="0.9" stroke-width="2" stroke-linecap="round" stroke-linejoin="round"/>
<path d="M230.342 25.4999C220.578 33.1762 221.542 22.5239 230.409 20.2939" stroke="black" stroke-opacity="0.9" stroke-width="2" stroke-linecap="round" stroke-linejoin="round"/>
<path d="M236.12 19.7754C238.303 19.4115 241.128 20.4031 243.438 21.1269C244.719 21.5286 246.298 21.4321 246.433 21.9669C246.81 23.4655 245.265 22.4038 244.743 22.7361C244.07 23.1645 245.757 26.0803 245.003 26.1421C243.343 26.2783 243.542 23.4176 242.869 23.2699C241.099 22.8817 238.702 23.3957 236.853 23.5632" stroke="black" stroke-opacity="0.9" stroke-width="2" stroke-linecap="round" stroke-linejoin="round"/>
<path opacity="0.503384" d="M224.856 24.6732C225.065 25.2946 225.537 25.3992 225.883 25.5622" stroke="black" stroke-opacity="0.9" stroke-width="2" stroke-linecap="round" stroke-linejoin="round"/>
<path opacity="0.503384" d="M226.679 22.4938C226.814 22.7326 227.001 22.9535 227.157 23.1768" stroke="black" stroke-opacity="0.9" stroke-width="2" stroke-linecap="round" stroke-linejoin="round"/>
<path opacity="0.503384" d="M236.93 20.1452C236.993 20.5231 236.957 20.9063 236.95 21.2873" stroke="black" stroke-opacity="0.9" stroke-width="2" stroke-linecap="round" stroke-linejoin="round"/>
<path opacity="0.503384" d="M239.657 20.9508C239.554 21.1368 239.577 21.3665 239.541 21.5536" stroke="black" stroke-opacity="0.9" stroke-width="2" stroke-linecap="round" stroke-linejoin="round"/>
<path opacity="0.503384" d="M234.698 19.1005C233.311 20.0484 232.057 21.191 230.628 22.0745" stroke="black" stroke-opacity="0.9" stroke-width="2" stroke-linecap="round" stroke-linejoin="round"/>
<path opacity="0.503384" d="M235.455 19.8279C234.049 20.8584 232.736 22.0123 231.331 23.045" stroke="black" stroke-opacity="0.9" stroke-width="2" stroke-linecap="round" stroke-linejoin="round"/>
<path opacity="0.503384" d="M235.592 21.2849C234.557 22.4597 233.259 23.2996 232.115 24.3391" stroke="black" stroke-opacity="0.9" stroke-width="2" stroke-linecap="round" stroke-linejoin="round"/>
<path opacity="0.503384" d="M235.702 23.0927C235.222 23.8136 232.922 25.256 232.818 25.3097" stroke="black" stroke-opacity="0.9" stroke-width="2" stroke-linecap="round" stroke-linejoin="round"/>
<path opacity="0.503384" d="M236.272 24.9C235.428 25.5673 234.539 26.1914 233.657 26.8196" stroke="black" stroke-opacity="0.9" stroke-width="2" stroke-linecap="round" stroke-linejoin="round"/>
<path opacity="0.503384" d="M236.409 26.8157C235.928 27.4521 235.347 27.9805 234.765 28.4911" stroke="black" stroke-opacity="0.9" stroke-width="2" stroke-linecap="round" stroke-linejoin="round"/>
<path opacity="0.503384" d="M236.601 28.9472C236.122 29.3054 235.731 29.7736 235.307 30.1904" stroke="black" stroke-opacity="0.9" stroke-width="2" stroke-linecap="round" stroke-linejoin="round"/>
<path opacity="0.503384" d="M351.653 249.244C347.813 247.197 351.868 245.689 353.34 244.638C354.69 243.674 355.388 244.915 355.908 244.966C356.246 245 357.221 243.809 358.218 244.256C358.612 244.433 358.496 245.129 358.77 245.251C360.137 245.864 361.691 244.184 363.348 245.707C364.645 246.899 362.634 248.177 361.875 248.888C361.07 249.643 362.422 250.953 361.454 252.39C361.067 252.965 358.453 253.454 358.114 252.564C358.09 252.502 358.342 254.779 356.583 254.148C355.185 253.646 356.042 252.12 355.481 251.434C355.001 250.847 353.836 252.328 353.535 250.661" stroke="black" stroke-opacity="0.9" stroke-width="2" stroke-linecap="round" stroke-linejoin="round"/>
<path d="M351.277 251.109C350.742 256.478 350.994 262.123 349.333 265.56C349.138 265.963 348.014 266.881 348.211 267.396C348.278 267.57 353.94 268.255 355.834 268.443C356.533 268.513 360.142 269.382 360.697 268.927C361.103 268.595 360.046 266.76 360.095 266.27C360.494 262.258 361.116 258.198 361.519 254.148" stroke="black" stroke-opacity="0.9" stroke-width="2" stroke-linecap="round" stroke-linejoin="round"/>
<path d="M361.148 253.877C368.76 244.622 365.968 264.608 361.861 262.58" stroke="black" stroke-opacity="0.9" stroke-width="2" stroke-linecap="round" stroke-linejoin="round"/>
<path opacity="0.503384" d="M358.137 266.299C356.181 265.965 354.065 265.972 352.321 265.58" stroke="black" stroke-opacity="0.9" stroke-width="2" stroke-linecap="round" stroke-linejoin="round"/>
<path d="M357.247 257.446C357.285 257.077 357.275 257.175 357.311 256.812" stroke="black" stroke-opacity="0.9" stroke-width="2" stroke-linecap="round" stroke-linejoin="round"/>
<path d="M357.071 257.429C357.092 257.217 357.113 257.006 357.135 256.795" stroke="black" stroke-opacity="0.9" stroke-width="2" stroke-linecap="round" stroke-linejoin="round"/>
<path d="M355.158 257.096C355.192 256.762 355.183 256.851 355.215 256.522" stroke="black" stroke-opacity="0.9" stroke-width="2" stroke-linecap="round" stroke-linejoin="round"/>
<path d="M354.982 257.078C355.001 256.887 355.02 256.696 355.039 256.505" stroke="black" stroke-opacity="0.9" stroke-width="2" stroke-linecap="round" stroke-linejoin="round"/>
<path d="M356.976 259.836C356.084 260.169 355.377 259.875 354.673 259.385" stroke="black" stroke-opacity="0.9" stroke-width="2" stroke-linecap="round" stroke-linejoin="round"/>
<path d="M134.91 334.822C136.392 332.82 140.629 331.875 141.104 335.145C141.41 337.246 139.96 338.088 138.666 339.545C136.22 342.299 139.261 346.133 132.142 348.41C125.43 350.556 124.836 338.141 132.933 336.374" stroke="black" stroke-opacity="0.9" stroke-width="2" stroke-linecap="round" stroke-linejoin="round"/>
<path opacity="0.503384" d="M130.776 342.087C134.667 336.313 135.967 343.341 132.034 344.941C130.131 345.716 130.443 342.778 131.066 341.89" stroke="black" stroke-opacity="0.9" stroke-width="2" stroke-linecap="round" stroke-linejoin="round"/>
<path d="M140.034 332.705C140.082 329.22 146.249 327.854 146.645 331.799C146.752 332.867 146.236 333.963 146.45 335.033C147.047 338.011 149.638 339.629 148.913 343.246C147.943 348.086 141.141 350.29 138.478 345.639" stroke="black" stroke-opacity="0.9" stroke-width="2" stroke-linecap="round" stroke-linejoin="round"/>
<path d="M410.153 486.926C410.098 483.816 409.582 480.551 410.026 477.44C410.28 475.664 410.484 472.978 411.838 471.622C411.91 471.55 412.489 471.105 412.47 471.032C412.467 471.016 410.026 470.519 409.479 468.671C408.206 464.375 411.448 458.502 416.094 462.221C417.959 463.713 418.201 467.786 416.474 469.514C415.98 470.008 415.227 470.128 414.788 470.568C414.595 470.761 416.094 470.761 417.653 473.098C419.299 475.564 419.112 478.152 419.465 480.981C419.517 481.397 419.634 486.251 419.212 486.462C418.927 486.605 418.023 486.4 417.653 486.462C417.232 486.532 416.368 486.739 415.968 486.673C415.757 486.638 417.038 478.542 414.701 479.711C412.327 480.898 413.923 485.58 412.99 486.822C412.675 487.242 412.188 486.926 411.294 486.926" stroke="black" stroke-opacity="0.9" stroke-width="1.2" stroke-linecap="round" stroke-linejoin="round"/>
<path d="M410.48 472.24C406.539 472.696 403.831 480.905 406.975 479.625C408.421 479.036 408.518 476.814 410.025 476.117" stroke="black" stroke-opacity="0.9" stroke-width="1.2" stroke-linecap="round" stroke-linejoin="round"/>
<path d="M417.04 471.414C417.55 471.354 418.176 470.997 418.405 470.481C422.558 461.092 424.79 471.597 418.405 473.76" stroke="black" stroke-opacity="0.9" stroke-width="1.2" stroke-linecap="round" stroke-linejoin="round"/>
<path d="M412.358 467.75C418.127 465.865 413.526 470.408 412.32 468.159" stroke="black" stroke-opacity="0.9" stroke-width="1.2" stroke-linecap="round" stroke-linejoin="round"/>
<path d="M412.48 465.68C412.45 465.494 412.427 465.307 412.4 465.12" stroke="black" stroke-opacity="0.9" stroke-width="1.2" stroke-linecap="round" stroke-linejoin="round"/>
<path d="M414.88 465.28C414.852 465.067 414.838 464.853 414.8 464.64" stroke="black" stroke-opacity="0.9" stroke-width="1.2" stroke-linecap="round" stroke-linejoin="round"/>
<path d="M413.92 472.88C413.92 472.773 413.92 472.666 413.92 472.56" stroke="black" stroke-opacity="0.9" stroke-width="1.2" stroke-linecap="round" stroke-linejoin="round"/>
<path d="M414 475.04C414 474.932 414 474.827 414 474.72" stroke="black" stroke-opacity="0.9" stroke-width="1.2" stroke-linecap="round" stroke-linejoin="round"/>
<path opacity="0.503384" d="M412.48 477.136C412.567 477.413 412.958 477.896 413.31 477.835C413.813 477.747 414.068 476.028 414.846 476.262C415.495 476.457 416.227 478.692 416.88 477.179" stroke="black" stroke-opacity="0.9" stroke-width="1.2" stroke-linecap="round" stroke-linejoin="round"/>
<path d="M411.936 481.44C411.886 481.136 411.967 480.85 412 480.56" stroke="black" stroke-opacity="0.9" stroke-width="1.2" stroke-linecap="round" stroke-linejoin="round"/>
<path d="M417.736 481.28C417.824 480.991 417.646 480.693 417.6 480.4" stroke="black" stroke-opacity="0.9" stroke-width="1.2" stroke-linecap="round" stroke-linejoin="round"/>
<path opacity="0.503384" d="M406.56 476.33C407.902 475.827 407.167 477.6 408.48 477.6" stroke="black" stroke-opacity="0.9" stroke-width="1.2" stroke-linecap="round" stroke-linejoin="round"/>
<path opacity="0.503384" d="M419.92 468.64C420.8 468.797 420.077 469.764 421.28 469.462" stroke="black" stroke-opacity="0.9" stroke-width="1.2" stroke-linecap="round" stroke-linejoin="round"/>
<path opacity="0.503384" d="M410.88 484.24C411.857 484.411 411.905 485.585 412.96 484.516" stroke="black" stroke-opacity="0.9" stroke-width="1.2" stroke-linecap="round" stroke-linejoin="round"/>
<path opacity="0.503384" d="M416.16 484.128C417.412 483.047 417.784 485.469 418.64 483.982" stroke="black" stroke-opacity="0.9" stroke-width="1.2" stroke-linecap="round" stroke-linejoin="round"/>
<path d="M477.866 67.96C477.023 68.1279 475.781 68.2797 474.883 68.4455C472.632 68.8613 470.146 69.2771 468.048 69.6955C467.505 69.8039 465.23 70.2316 465.687 70.1811" stroke="black" stroke-opacity="0.9" stroke-width="2" stroke-linecap="round" stroke-linejoin="round"/>
<path d="M479.201 71.1866C478.267 71.2706 476.888 71.3465 475.893 71.4294C473.396 71.6373 470.638 71.8452 468.312 72.0544C467.71 72.1086 465.187 72.3225 465.694 72.2971" stroke="black" stroke-opacity="0.9" stroke-width="2" stroke-linecap="round" stroke-linejoin="round"/>
<path opacity="0.503384" d="M468.088 70.2964C471.212 71.9749 466.477 76.1341 468.472 77.3059" stroke="black" stroke-opacity="0.9" stroke-width="2" stroke-linecap="round" stroke-linejoin="round"/>
<path opacity="0.503384" d="M466.969 70.6302C467.661 72.797 466.451 74.9194 466.651 77.1947" stroke="black" stroke-opacity="0.9" stroke-width="2" stroke-linecap="round" stroke-linejoin="round"/>
<path opacity="0.503384" d="M465.425 70.964C465.837 73.1338 465.549 75.492 465.182 77.6397" stroke="black" stroke-opacity="0.9" stroke-width="2" stroke-linecap="round" stroke-linejoin="round"/>
<path d="M474.492 77.5284C471.776 78.0044 470.821 78.0856 467.148 78.0856C462.343 78.0856 458.84 77.2927 458.84 78.0856C458.84 83.1409 463.581 86.2069 467.521 86.0956C471.461 85.9844 474.862 83.1263 474.862 78.8526" stroke="black" stroke-opacity="0.9" stroke-width="2" stroke-linecap="round" stroke-linejoin="round"/>
<path d="M473.96 300.644C478.616 300.78 483.327 300.106 487.979 300.106" stroke="black" stroke-opacity="0.9" stroke-width="2" stroke-linecap="round" stroke-linejoin="round"/>
<path d="M477.061 314.81C476.63 312.569 474.311 298.919 475.963 298.095C477.675 297.242 485.62 297.166 486.277 297.82C487.285 298.826 485.957 314.305 485.394 314.865C485.106 315.152 483.929 315.089 483.625 315.089C481.525 315.089 479.359 315.273 477.282 315.085" stroke="black" stroke-opacity="0.9" stroke-width="2" stroke-linecap="round" stroke-linejoin="round"/>
<path d="M484.085 297.436C485.098 295.247 485.906 292.946 486.866 290.76" stroke="black" stroke-opacity="0.9" stroke-width="2" stroke-linecap="round" stroke-linejoin="round"/>
<path d="M277.55 150.851C276.155 152.002 274.879 153.368 273.832 154.829C272.535 156.64 267.735 162.077 267.489 163.868C267.409 164.451 267.078 165.263 267.85 165.591C269.646 166.352 272.735 163.718 274.531 163.206C275.037 163.062 275.939 164.761 276.686 164.548C277.001 164.458 278.278 162.048 279.569 161.571C280.228 161.327 280.947 162.141 281.697 161.977C282.371 161.83 282.976 160.483 283.706 160.117C284.812 159.564 285.622 160.244 286.68 160.202C286.981 160.189 287.61 160.041 287.873 159.874C288.354 159.569 288.494 158.783 288.926 158.387C289.407 157.946 290.25 157.944 290.571 157.343C290.979 156.577 288.821 155.694 288.399 155.286C286.493 153.445 280.591 149.302 277.594 150.257C277.396 150.321 277.232 150.66 277.082 150.797" stroke="black" stroke-opacity="0.9" stroke-width="1.6" stroke-linecap="round" stroke-linejoin="round"/>
<path d="M278.334 149.455C279.057 146.646 280.104 146.806 282.314 148.274C284.441 149.688 293.722 154.052 293.479 156.876C293.404 157.746 291.609 158.389 290.911 158.589C289.268 159.058 287.834 160.158 286.149 160.639C281.025 162.102 275.824 163.642 270.757 165.26" stroke="black" stroke-opacity="0.9" stroke-width="1.6" stroke-linecap="round" stroke-linejoin="round"/>
<path d="M292.195 155.289C291.474 155.478 290.373 155.98 290.463 156.729" stroke="black" stroke-opacity="0.9" stroke-width="1.6" stroke-linecap="round" stroke-linejoin="round"/>
<path opacity="0.503384" d="M283.734 154.514C284.031 153.824 285.271 153.458 285.949 153.771C288.055 154.746 287.843 158.231 284.752 158.274C282.854 158.3 282.631 156.438 283.82 155.236" stroke="black" stroke-opacity="0.9" stroke-width="1.6" stroke-linecap="round" stroke-linejoin="round"/>
<path opacity="0.503384" d="M277.846 158.136C278.242 157.706 278.81 157.345 279.41 157.273C281.233 157.054 283.012 158.38 281.157 159.876C278.895 161.701 276.208 161.181 277.974 158.233" stroke="black" stroke-opacity="0.9" stroke-width="1.6" stroke-linecap="round" stroke-linejoin="round"/>
<path opacity="0.503384" d="M276.562 152.302C276.884 151.463 277.674 150.914 278.646 151.045C279.325 151.137 280.003 151.72 280.536 152.086C283.804 154.326 277.149 157.841 276.723 154.297C276.621 153.442 276.632 153.163 277.259 152.554" stroke="black" stroke-opacity="0.9" stroke-width="1.6" stroke-linecap="round" stroke-linejoin="round"/>
<path opacity="0.503384" d="M270.683 161.847C270.807 161.28 271.125 160.767 271.561 160.352C273.218 158.774 276.281 160.473 275.007 161.985C273.653 163.592 270.466 164.01 271.304 161.151" stroke="black" stroke-opacity="0.9" stroke-width="1.6" stroke-linecap="round" stroke-linejoin="round"/>
<path d="M169.32 456.049C170.732 471.243 189.703 473.261 192.61 455.84" stroke="black" stroke-opacity="0.9" stroke-width="2" stroke-linecap="round" stroke-linejoin="round"/>
<path opacity="0.503384" d="M172.093 457.437C172.551 464.722 181.092 468.77 186.454 464.248C188.864 462.215 189.308 459.082 190.362 456.119" stroke="black" stroke-opacity="0.9" stroke-width="2" stroke-linecap="round" stroke-linejoin="round"/>
<path d="M184.643 461.831C184.693 461.469 184.774 461.047 184.818 460.716" stroke="black" stroke-opacity="0.9" stroke-width="2" stroke-linecap="round" stroke-linejoin="round"/>
<path d="M181.069 462.109C181.091 461.776 181.209 461.457 181.279 461.134" stroke="black" stroke-opacity="0.9" stroke-width="2" stroke-linecap="round" stroke-linejoin="round"/>
<path d="M177.147 461.413C177.2 461.119 177.232 460.757 177.252 460.438" stroke="black" stroke-opacity="0.9" stroke-width="2" stroke-linecap="round" stroke-linejoin="round"/>
<path fill-rule="evenodd" clip-rule="evenodd" d="M179.662 458.479C179.613 458.214 179.606 458.013 179.662 457.791V458.479Z" stroke="black" stroke-opacity="0.9" stroke-width="2" stroke-linecap="round" stroke-linejoin="round"/>
<path d="M183.144 458.626C183.175 458.348 183.211 458.066 183.249 457.791" stroke="black" stroke-opacity="0.9" stroke-width="2" stroke-linecap="round" stroke-linejoin="round"/>
<path d="M192.471 456.004C184.783 456.145 177.038 456.078 169.32 456.078" stroke="black" stroke-opacity="0.9" stroke-width="2" stroke-linecap="round" stroke-linejoin="round"/>
<path d="M345.681 41.8894C349.634 41.296 353.61 41.107 357.581 40.7151C358.454 40.629 359.321 40.6007 360.194 40.5146C360.402 40.494 360.797 40.245 360.817 40.453C360.837 40.6529 359.529 42.1784 359.348 42.4322C358.397 43.7658 353.876 50.5079 352.425 51.0824C351.983 51.2575 344.323 43.7096 343.651 43.239" stroke="black" stroke-opacity="0.9" stroke-width="2" stroke-linecap="round" stroke-linejoin="round"/>
<path opacity="0.503384" d="M347.376 44.6835C348.265 44.447 356.611 43.1502 356.7 44.0468C356.776 44.8241 348.389 45.7692 347.211 45.3235" stroke="black" stroke-opacity="0.9" stroke-width="2" stroke-linecap="round" stroke-linejoin="round"/>
<path d="M352.275 51.3223C352.146 53.6976 352.991 56.1996 352.653 58.5521" stroke="black" stroke-opacity="0.9" stroke-width="2" stroke-linecap="round" stroke-linejoin="round"/>
<path d="M348.81 59.2668C351.357 58.1914 354.28 57.9447 357.038 57.6726" stroke="black" stroke-opacity="0.9" stroke-width="2" stroke-linecap="round" stroke-linejoin="round"/>
<path d="M456.72 190.88C457.853 193.063 460.56 193.254 459.781 196.24" stroke="black" stroke-opacity="0.9" stroke-width="1.2" stroke-linecap="round" stroke-linejoin="round"/>
<path d="M456.741 190.96C456.847 191.81 456.037 192.155 455.462 192.64C453.785 194.055 456.143 196.306 457.381 196.875C459.779 197.977 461.854 197.696 460.722 201.04" stroke="black" stroke-opacity="0.9" stroke-width="1.2" stroke-linecap="round" stroke-linejoin="round"/>
<path d="M454.526 194.4C452.91 194.801 451.344 196.054 451.657 197.924C452.291 201.716 463.276 199.566 461.278 203.053C459.204 206.672 447.182 204.058 451.482 198.483" stroke="black" stroke-opacity="0.9" stroke-width="1.2" stroke-linecap="round" stroke-linejoin="round"/>
<path d="M451.6 203.36C452.758 208.322 454.293 212.908 456.205 217.12C457.281 213.747 457.99 211.453 458.333 210.24C459.363 206.6 459.68 204.79 459.68 204.437" stroke="black" stroke-opacity="0.9" stroke-width="1.2" stroke-linecap="round" stroke-linejoin="round"/>
<path d="M455.452 208.853C458.865 205.781 455.779 215.591 455.36 209.075" stroke="black" stroke-opacity="0.9" stroke-width="1.2" stroke-linecap="round" stroke-linejoin="round"/>
<path d="M457.2 206.24C457.279 206.031 457.307 205.813 457.36 205.6" stroke="black" stroke-opacity="0.9" stroke-width="1.2" stroke-linecap="round" stroke-linejoin="round"/>
<path d="M455.44 206.24C455.519 206.038 455.494 205.817 455.52 205.6" stroke="black" stroke-opacity="0.9" stroke-width="1.2" stroke-linecap="round" stroke-linejoin="round"/>
<path d="M335.427 439.977C333.768 439.977 328.712 439.95 327.868 440.284C327.686 440.356 325.554 444.004 325.42 445.291C325.309 446.36 325.687 452.081 325.687 454.525C325.687 455.098 325.35 460.288 325.836 460.653C326.001 460.778 327.625 460.889 327.868 460.889C329.683 460.889 334.06 460.979 335.08 460.653C335.184 460.62 335.201 456.826 335.229 456.518C335.437 454.218 334.829 445.812 335.229 444.61C335.663 443.305 336.326 442.057 336.769 440.724" stroke="black" stroke-opacity="0.9" stroke-width="2" stroke-linecap="round" stroke-linejoin="round"/>
<path d="M337.038 440.284C337.924 441.092 339.224 441.56 339.911 442.581C340.743 443.817 340.668 457.63 340.365 457.931C339.752 458.538 338.197 459.547 337.038 459.837" stroke="black" stroke-opacity="0.9" stroke-width="2" stroke-linecap="round" stroke-linejoin="round"/>
<path d="M327.868 439.547C327.868 439.066 327.531 438.027 328.148 437.582C328.929 437.019 335.292 437.019 336.225 437.582C336.576 437.793 336.67 439.59 336.642 439.95" stroke="black" stroke-opacity="0.9" stroke-width="2" stroke-linecap="round" stroke-linejoin="round"/>
<path opacity="0.503384" d="M325.754 445.291C329.04 445.163 332.183 445.648 335.189 445.018C336.792 444.682 338.354 443.818 339.884 442.843" stroke="black" stroke-opacity="0.9" stroke-width="2" stroke-linecap="round" stroke-linejoin="round"/>
</g>
<defs>
<clipPath id="clip0_4_831">
<rect width="32" height="32" fill="white" transform="translate(44.3048 139.11) rotate(22.4012)"/>
</clipPath>
<clipPath id="clip1_4_831">
<rect width="32" height="32" fill="white" transform="translate(29 31.1469) rotate(-32.4009)"/>
</clipPath>
<clipPath id="clip2_4_831">
<rect width="32" height="32" fill="white" transform="translate(362 115.572) rotate(-15.5377)"/>
</clipPath>
</defs>
</svg>
